<svg width="48" height="48" viewBox="0 0 24 24" fill="#25314C" xmlns="http://www.w3.org/2000/svg"><path d="M21.536 5.525a.751.751 0 0 1-1.061.011l-2-1.96a.75.75 0 0 1 1.05-1.076l2 1.96a.752.752 0 0 1 .011 1.065ZM5.53 3.53a.75.75 0 0 0-1.06-1.06l-2 2a.75.75 0 1 0 1.06 1.06Zm11.606 15.539 1.395 1.4a.75.75 0 1 1-1.062 1.058l-1.657-1.665a8.644 8.644 0 0 1-7.624 0l-1.657 1.667a.75.75 0 1 1-1.062-1.058l1.395-1.4a8.75 8.75 0 1 1 10.272 0ZM12 19.25A7.25 7.25 0 1 0 4.75 12 7.258 7.258 0 0 0 12 19.25Zm0-11.96a.75.75 0 0 0-.75.75v4a.75.75 0 0 0 1.5 0v-4a.75.75 0 0 0-.75-.75Z" fill="#0a0a0a"></path></svg>