<svg width="48" height="48" viewBox="0 0 24 24" fill="#25314C" xmlns="http://www.w3.org/2000/svg"><path d="M19.822 9.208h-1.094a.367.367 0 0 1-.343-.344c0-3.585-2.924-6.614-6.386-6.614H8.635a6.394 6.394 0 0 0-6.386 6.386v6.729a6.393 6.393 0 0 0 6.386 6.386h6.729a6.394 6.394 0 0 0 6.386-6.386v-4.229a1.908 1.908 0 0 0-1.928-1.928Zm.428 6.156a4.891 4.891 0 0 1-4.886 4.886H8.635a4.892 4.892 0 0 1-4.886-4.886V8.635a4.891 4.891 0 0 1 4.886-4.886h3.364c2.648 0 4.886 2.342 4.886 5.114 0 1 .844 1.844 1.843 1.844h1.094c.26 0 .428.168.428.428v4.229ZM7.458 8.906c0-.589.505-1.093 1.093-1.093h4.037c.589 0 1.093.505 1.093 1.093s-.505 1.093-1.093 1.093H8.551a1.113 1.113 0 0 1-1.093-1.093Zm9 6.593c0 .589-.505 1.093-1.094 1.093H8.551c-.589 0-1.093-.505-1.093-1.093s.505-1.093 1.093-1.093h6.813c.589 0 1.094.505 1.094 1.093Z" fill="#0a0a0a"></path></svg>