<svg width="48" height="48" viewBox="0 0 24 24" fill="#25314C" xmlns="http://www.w3.org/2000/svg"><path d="M19.823 9.958h-1.094a1.114 1.114 0 0 1-1.094-1.093C17.635 5.753 15.112 3 12 3H8.635A5.635 5.635 0 0 0 3 8.635v6.729a5.635 5.635 0 0 0 5.635 5.635h6.729a5.635 5.635 0 0 0 5.635-5.635v-4.229a1.15 1.15 0 0 0-1.177-1.178ZM8.552 7.813h4.037c.589 0 1.093.505 1.093 1.093s-.505 1.093-1.093 1.093H8.552c-.589 0-1.093-.505-1.093-1.093s.505-1.093 1.093-1.093Zm6.813 8.78H8.552c-.589 0-1.093-.505-1.093-1.093s.505-1.093 1.093-1.093h6.813c.589 0 1.094.505 1.094 1.093s-.505 1.093-1.094 1.093Z" fill="#0a0a0a"></path></svg>