<svg width="48" height="48" viewBox="0 0 24 24" fill="#25314C" xmlns="http://www.w3.org/2000/svg"><path d="M17.43 1.25h-6.86a3.022 3.022 0 0 0-3.32 3.32v.68h-.679A3 3 0 0 0 3.25 8.571V22a.75.75 0 0 0 1.122.651L10 19.435l5.628 3.216A.751.751 0 0 0 16.75 22v-5l2.877 1.647A.75.75 0 0 0 20.75 18V4.57a3.022 3.022 0 0 0-3.32-3.32Zm-2.18 19.457-4.878-2.787a.748.748 0 0 0-.744 0L4.75 20.708V8.571c0-1.293.527-1.821 1.821-1.821h6.858c1.294 0 1.821.528 1.821 1.821Zm4-4-2.5-1.432v-6.7a3 3 0 0 0-3.321-3.325H8.75v-.68c0-1.293.527-1.82 1.82-1.82h6.86c1.293 0 1.82.527 1.82 1.82Zm-6-5.707a.75.75 0 0 1-.75.75h-5a.75.75 0 0 1 0-1.5h5a.75.75 0 0 1 .75.75Z" fill="#0a0a0a"></path></svg>