<svg width="24" height="24" viewBox="0 0 24 24" fill="none" xmlns="http://www.w3.org/2000/svg">
<g clip-path="url(#clip0_440_1346)">
<path d="M2 8.994C1.99947 8.2062 2.15435 7.42604 2.45577 6.69819C2.75718 5.97033 3.19921 5.30908 3.75655 4.7523C4.31388 4.19553 4.97558 3.75416 5.70373 3.45347C6.43189 3.15278 7.21221 2.99869 8 3H16C19.313 3 22 5.695 22 8.994V21H8C4.687 21 2 18.305 2 15.006V8.994ZM20 19V8.994C19.9974 7.9345 19.5749 6.91924 18.8251 6.17062C18.0754 5.422 17.0595 5.00106 16 5H8C7.47485 4.99868 6.9546 5.10105 6.4691 5.30123C5.98359 5.5014 5.54238 5.79545 5.17076 6.16652C4.79914 6.53758 4.50443 6.97835 4.30353 7.46355C4.10262 7.94876 3.99947 8.46885 4 8.994V15.006C4.00265 16.0655 4.42511 17.0808 5.17486 17.8294C5.9246 18.578 6.9405 18.9989 8 19H20ZM14 11H16V13H14V11ZM8 11H10V13H8V11Z" fill="#0E1339"/>
</g>
<defs>
<clipPath id="clip0_440_1346">
<rect width="24" height="24" fill="white"/>
</clipPath>
</defs>
</svg>
