<svg width="48" height="48" viewBox="0 0 24 24" fill="#25314C" xmlns="http://www.w3.org/2000/svg"><path d="M17 4.25h-.27a2.036 2.036 0 0 0-2.23-2h-5a2.036 2.036 0 0 0-2.23 2H7A3.383 3.383 0 0 0 3.25 8v10A3.383 3.383 0 0 0 7 21.75h10A3.383 3.383 0 0 0 20.75 18V8A3.383 3.383 0 0 0 17 4.25Zm-8.25.25c0-.589.161-.75.75-.75h5c.589 0 .75.161.75.75v1c0 .589-.161.75-.75.75h-5c-.589 0-.75-.161-.75-.75ZM19.25 18c0 1.577-.673 2.25-2.25 2.25H7c-1.577 0-2.25-.673-2.25-2.25V8c0-1.577.673-2.25 2.25-2.25h.27a2.036 2.036 0 0 0 2.23 2h5a2.036 2.036 0 0 0 2.23-2H17c1.577 0 2.25.673 2.25 2.25Z" fill="#0a0a0a"></path></svg>