<svg width="48" height="48" viewBox="0 0 24 24" fill="#25314C" xmlns="http://www.w3.org/2000/svg"><path d="M21 10.75h.75V7A3.383 3.383 0 0 0 18 3.25H6A3.383 3.383 0 0 0 2.25 7v3.75H3a1.25 1.25 0 0 1 0 2.5h-.75V17A3.383 3.383 0 0 0 6 20.75h12A3.383 3.383 0 0 0 21.75 17v-3.75H21a1.25 1.25 0 0 1 0-2.5Zm-.75 3.9V17c0 1.577-.673 2.25-2.25 2.25h-2.25V16.5a.75.75 0 0 0-1.5 0v2.75H6c-1.577 0-2.25-.673-2.25-2.25v-2.354a2.75 2.75 0 0 0 0-5.292V7c0-1.577.673-2.25 2.25-2.25h8.25V7.5a.75.75 0 0 0 1.5 0V4.75H18c1.577 0 2.25.673 2.25 2.25v2.354a2.75 2.75 0 0 0 0 5.292Zm-4.5-3.9v2.5a.75.75 0 0 1-1.5 0v-2.5a.75.75 0 0 1 1.5 0Z" fill="#0a0a0a"></path></svg>