<svg width="166" height="166" viewBox="0 0 166 166" fill="none" xmlns="http://www.w3.org/2000/svg">
<path d="M155.441 79.7261L86.2739 10.5594C85.41 9.70062 84.2413 9.21857 83.0231 9.21857C81.8049 9.21857 80.6362 9.70062 79.7723 10.5594L10.6056 79.7261C9.85018 80.6082 9.45544 81.7429 9.50027 82.9034C9.54509 84.0639 10.0262 85.1648 10.8474 85.986C11.6686 86.8072 12.7695 87.2883 13.93 87.3331C15.0905 87.3779 16.2252 86.9832 17.1073 86.2278L83 20.335L148.893 86.2739C149.775 87.0293 150.91 87.4241 152.07 87.3792C153.231 87.3344 154.331 86.8533 155.153 86.0321C155.974 85.2109 156.455 84.11 156.5 82.9495C156.545 81.789 156.15 80.6543 155.394 79.7722L155.441 79.7261Z" fill="#1A488E"/>
<path d="M129.111 147.556H106.056V101.444H59.9445V147.556H36.889V83L27.6667 92.2222V147.556C27.6667 150.001 28.6384 152.347 30.3679 154.077C32.0974 155.806 34.4431 156.778 36.889 156.778H69.1667V110.667H96.8334V156.778H129.111C131.557 156.778 133.903 155.806 135.632 154.077C137.362 152.347 138.333 150.001 138.333 147.556V91.1156L129.111 81.8933V147.556Z" fill="#1A488E"/>
</svg>
