<svg width="48" height="48" viewBox="0 0 24 24" fill="#25314C" xmlns="http://www.w3.org/2000/svg"><path d="M18 21.75h-4.25V16.5a1.75 1.75 0 0 0-3.5 0v5.25H6A3.383 3.383 0 0 1 2.25 18v-6.35c0-2.122.586-2.716 1.542-3.509l6.12-5.131a3.244 3.244 0 0 1 4.176 0l6.12 5.131c.956.793 1.542 1.387 1.542 3.509V18A3.383 3.383 0 0 1 18 21.75Zm-2.75-1.5H18c1.577 0 2.25-.673 2.25-2.25v-6.35c0-1.525-.252-1.734-1-2.355l-6.125-5.136a1.75 1.75 0 0 0-2.25 0L4.749 9.3c-.747.621-1 .83-1 2.355V18c0 1.577.673 2.25 2.25 2.25H8.75V16.5a3.25 3.25 0 0 1 6.5 0Z" fill="#0a0a0a"></path></svg>