<svg width="48" height="48" viewBox="0 0 24 24" fill="#25314C" xmlns="http://www.w3.org/2000/svg"><path d="M12.469 21.75c-.05 0-.1 0-.152-.006a1.808 1.808 0 0 1-1.606-1.316l-1.09-3.817a3.232 3.232 0 0 0-2.232-2.232l-3.817-1.09a1.823 1.823 0 0 1-.275-3.4l15.849-7.462a1.824 1.824 0 0 1 2.427 2.427L14.114 20.7a1.807 1.807 0 0 1-1.645 1.05Zm7.316-17.965L3.936 11.243a.324.324 0 0 0 .048.6L7.8 12.937a4.72 4.72 0 0 1 3.263 3.263l1.09 3.817a.307.307 0 0 0 .285.233.315.315 0 0 0 .319-.185l7.458-15.85a.323.323 0 0 0-.43-.43Z" fill="#0a0a0a"></path></svg>