<svg width="20" height="20" viewBox="0 0 20 20" fill="none" xmlns="http://www.w3.org/2000/svg">
<path fill-rule="evenodd" clip-rule="evenodd" d="M19.7047 2.59154C20.0163 1.18588 18.7091 -0.0825198 17.2938 0.327077L1.63726 4.88281L1.48616 4.93304C0.0165745 5.48611 -0.208908 7.53286 1.16756 8.38023L7.6431 12.3661L11.5389 18.8202L11.6264 18.9534C12.5396 20.2329 14.5619 19.923 15.023 18.372L19.6681 2.73251L19.7047 2.59154ZM17.7847 1.75323C18.0735 1.72222 18.3203 2.00312 18.2304 2.30473L13.5851 17.9448L13.5546 18.0214C13.4094 18.3069 12.9987 18.336 12.8231 18.0451L9.1351 11.9361L14.3876 6.64975L14.4599 6.56539C14.6768 6.27106 14.6512 5.85447 14.3841 5.5891L14.2997 5.51676C14.0054 5.29988 13.5888 5.32548 13.3234 5.59263L8.0781 10.8721L1.95386 7.10284L1.88774 7.05318C1.64991 6.83652 1.72996 6.41781 2.05586 6.32322L17.7118 1.76765L17.7847 1.75323Z" fill="#707070"/>
</svg>
