<svg width="25" height="25" viewBox="0 0 25 25" fill="none" xmlns="http://www.w3.org/2000/svg">
<path fill-rule="evenodd" clip-rule="evenodd" d="M21.6917 7.73909L21.0692 6.659C20.5427 5.74508 19.3757 5.4298 18.4605 5.9542V5.9542C18.0249 6.21082 17.5051 6.28363 17.0157 6.15657C16.5263 6.0295 16.1076 5.713 15.8519 5.27685C15.6873 4.99963 15.5989 4.68387 15.5956 4.36152V4.36152C15.6104 3.8447 15.4154 3.34388 15.055 2.97315C14.6946 2.60242 14.1995 2.39334 13.6825 2.39355H12.4285C11.922 2.39355 11.4363 2.59539 11.079 2.95442C10.7217 3.31345 10.5222 3.80007 10.5246 4.3066V4.3066C10.5096 5.3524 9.65749 6.19229 8.61158 6.19218C8.28922 6.18883 7.97347 6.10042 7.69624 5.93589V5.93589C6.78107 5.41149 5.61412 5.72677 5.08755 6.64069L4.41936 7.73909C3.89342 8.65187 4.20441 9.81808 5.11501 10.3478V10.3478C5.70691 10.6895 6.07154 11.3211 6.07154 12.0045C6.07154 12.688 5.70691 13.3196 5.11501 13.6613V13.6613C4.20557 14.1874 3.89424 15.3508 4.41936 16.2608V16.2608L5.05094 17.3501C5.29766 17.7953 5.71161 18.1238 6.2012 18.2629C6.69079 18.4021 7.21565 18.3404 7.65963 18.0915V18.0915C8.09609 17.8368 8.6162 17.767 9.10435 17.8977C9.5925 18.0283 10.0082 18.3485 10.2592 18.7871C10.4237 19.0644 10.5121 19.3801 10.5155 19.7025V19.7025C10.5155 20.759 11.372 21.6155 12.4285 21.6155H13.6825C14.7355 21.6155 15.5905 20.7646 15.5956 19.7116V19.7116C15.5931 19.2035 15.7939 18.7155 16.1532 18.3562C16.5125 17.9969 17.0005 17.7961 17.5086 17.7986C17.8302 17.8072 18.1446 17.8952 18.4239 18.0549V18.0549C19.3367 18.5808 20.5029 18.2698 21.0326 17.3592V17.3592L21.6917 16.2608C21.9468 15.823 22.0168 15.3015 21.8862 14.8119C21.7556 14.3222 21.4353 13.9048 20.996 13.6521V13.6521C20.5568 13.3994 20.2364 12.9821 20.1058 12.4924C19.9753 12.0028 20.0453 11.4813 20.3004 11.0434C20.4663 10.7538 20.7064 10.5137 20.996 10.3478V10.3478C21.9012 9.81837 22.2114 8.65897 21.6917 7.74825V7.74825V7.73909Z" stroke="#707070" stroke-width="1.5" stroke-linecap="round" stroke-linejoin="round"/>
<circle cx="13.0601" cy="12.0043" r="2.63616" stroke="#707070" stroke-width="1.5" stroke-linecap="round" stroke-linejoin="round"/>
</svg>
