<svg width="48" height="48" viewBox="0 0 24 24" fill="#25314C" xmlns="http://www.w3.org/2000/svg"><path d="M12 8.5a3.5 3.5 0 1 0 3.5 3.5A3.5 3.5 0 0 0 12 8.5Zm0 6a2.5 2.5 0 1 1 2.5-2.5 2.5 2.5 0 0 1-2.5 2.5Zm9.082-.331a2.505 2.505 0 0 1 0-4.34.834.834 0 0 0 .3-1.137l-1.667-2.886a.832.832 0 0 0-1.135-.3 2.51 2.51 0 0 1-3.766-2.166.837.837 0 0 0-.836-.836h-3.956a.838.838 0 0 0-.837.836A2.509 2.509 0 0 1 5.421 5.5a.833.833 0 0 0-1.136.3L2.611 8.694a.834.834 0 0 0 .309 1.138 2.5 2.5 0 0 1 0 4.339.832.832 0 0 0-.3 1.137l1.671 2.884a.834.834 0 0 0 1.137.3 2.52 2.52 0 0 1 2.509 0h.006a2.5 2.5 0 0 1 1.245 2.162.837.837 0 0 0 .836.836h3.96a.836.836 0 0 0 .835-.835 2.51 2.51 0 0 1 3.76-2.155.835.835 0 0 0 1.136-.3l1.674-2.889a.834.834 0 0 0-.307-1.142Zm-2.15 3.382a3.509 3.509 0 0 0-5.114 2.949h-3.639a3.506 3.506 0 0 0-5.111-2.949l-1.507-2.6a3.5 3.5 0 0 0 0-5.9l1.508-2.6A3.509 3.509 0 0 0 10.181 3.5h3.637a3.509 3.509 0 0 0 5.114 2.949l1.507 2.6a3.505 3.505 0 0 0 0 5.9Z" fill="#0a0a0a"></path></svg>