<svg width="96" height="96" viewBox="0 0 96 96" fill="none" xmlns="http://www.w3.org/2000/svg">
<path d="M77.7201 51.92C77.8801 50.64 78.0001 49.36 78.0001 48C78.0001 46.64 77.8801 45.36 77.7201 44.08L86.1601 37.48C86.9201 36.88 87.1201 35.8 86.6401 34.92L78.6401 21.08C78.2801 20.44 77.6001 20.08 76.8801 20.08C76.6401 20.08 76.4001 20.12 76.2001 20.2L66.2401 24.2C64.1601 22.6 61.9201 21.28 59.4801 20.28L57.9601 9.68C57.8401 8.72 57.0001 8 56.0001 8H40.0001C39.0001 8 38.1601 8.72 38.0401 9.68L36.5201 20.28C34.0801 21.28 31.8401 22.64 29.7601 24.2L19.8001 20.2C19.5601 20.12 19.3201 20.08 19.0801 20.08C18.4001 20.08 17.7201 20.44 17.3601 21.08L9.36009 34.92C8.84009 35.8 9.08009 36.88 9.84009 37.48L18.2801 44.08C18.1201 45.36 18.0001 46.68 18.0001 48C18.0001 49.32 18.1201 50.64 18.2801 51.92L9.84009 58.52C9.08009 59.12 8.88009 60.2 9.36009 61.08L17.3601 74.92C17.7201 75.56 18.4001 75.92 19.1201 75.92C19.3601 75.92 19.6001 75.88 19.8001 75.8L29.7601 71.8C31.8401 73.4 34.0801 74.72 36.5201 75.72L38.0401 86.32C38.1601 87.28 39.0001 88 40.0001 88H56.0001C57.0001 88 57.8401 87.28 57.9601 86.32L59.4801 75.72C61.9201 74.72 64.1601 73.36 66.2401 71.8L76.2001 75.8C76.4401 75.88 76.6801 75.92 76.9201 75.92C77.6001 75.92 78.2801 75.56 78.6401 74.92L86.6401 61.08C87.1201 60.2 86.9201 59.12 86.1601 58.52L77.7201 51.92V51.92ZM69.8001 45.08C69.9601 46.32 70.0001 47.16 70.0001 48C70.0001 48.84 69.9201 49.72 69.8001 50.92L69.2401 55.44L72.8001 58.24L77.1201 61.6L74.3201 66.44L69.2401 64.4L65.0801 62.72L61.4801 65.44C59.7601 66.72 58.1201 67.68 56.4801 68.36L52.2401 70.08L51.6001 74.6L50.8001 80H45.2001L44.4401 74.6L43.8001 70.08L39.5601 68.36C37.8401 67.64 36.2401 66.72 34.6401 65.52L31.0001 62.72L26.7601 64.44L21.6801 66.48L18.8801 61.64L23.2001 58.28L26.7601 55.48L26.2001 50.96C26.0801 49.72 26.0001 48.8 26.0001 48C26.0001 47.2 26.0801 46.28 26.2001 45.08L26.7601 40.56L23.2001 37.76L18.8801 34.4L21.6801 29.56L26.7601 31.6L30.9201 33.28L34.5201 30.56C36.2401 29.28 37.8801 28.32 39.5201 27.64L43.7601 25.92L44.4001 21.4L45.2001 16H50.7601L51.5201 21.4L52.1601 25.92L56.4001 27.64C58.1201 28.36 59.7201 29.28 61.3201 30.48L64.9601 33.28L69.2001 31.56L74.2801 29.52L77.0801 34.36L72.8001 37.76L69.2401 40.56L69.8001 45.08ZM48.0001 32C39.1601 32 32.0001 39.16 32.0001 48C32.0001 56.84 39.1601 64 48.0001 64C56.8401 64 64.0001 56.84 64.0001 48C64.0001 39.16 56.8401 32 48.0001 32ZM48.0001 56C43.6001 56 40.0001 52.4 40.0001 48C40.0001 43.6 43.6001 40 48.0001 40C52.4001 40 56.0001 43.6 56.0001 48C56.0001 52.4 52.4001 56 48.0001 56Z" fill="#1A488E"/>
</svg>
