<svg width="24" height="24" viewBox="0 0 24 24" fill="none" xmlns="http://www.w3.org/2000/svg">
<g clip-path="url(#clip0_229_3)">
<path d="M18.9041 4.96498L6.49407 8.51098L12.5741 11.551L14.8291 17.188L18.9041 4.96498ZM21.7001 2.89898L15.4321 21.705C15.3998 21.8023 15.3384 21.8874 15.2562 21.9486C15.1739 22.0099 15.0749 22.0444 14.9724 22.0474C14.8699 22.0505 14.7689 22.022 14.6832 21.9657C14.5974 21.9095 14.5311 21.8282 14.4931 21.733L11.0001 13L2.15007 8.57498C2.05996 8.52995 1.98554 8.45875 1.93658 8.37071C1.88762 8.28266 1.8664 8.18188 1.87569 8.08157C1.88499 7.98126 1.92437 7.88609 1.98868 7.80854C2.05298 7.73099 2.13922 7.67468 2.23607 7.64698L21.0891 2.25998C21.1767 2.23503 21.2694 2.23447 21.3573 2.25837C21.4452 2.28226 21.5248 2.32971 21.5877 2.39558C21.6506 2.46145 21.6943 2.54325 21.7141 2.63214C21.7339 2.72103 21.7291 2.81364 21.7001 2.89998V2.89898Z" fill="#0E1339"/>
</g>
<defs>
<clipPath id="clip0_229_3">
<rect width="24" height="24" fill="white" transform="matrix(0 1 -1 0 24 0)"/>
</clipPath>
</defs>
</svg>
